<svg width="151" height="31" viewBox="0 0 151 31" fill="none" xmlns="http://www.w3.org/2000/svg">
<path id="Lorem" fill-rule="evenodd" clip-rule="evenodd" d="M145.42 8.90669C145.562 8.95664 145.69 9.02158 145.802 9.09901C145.914 9.17893 146.002 9.27884 146.072 9.39873C146.139 9.52111 146.172 9.67347 146.172 9.8558C146.172 10.0531 146.127 10.2205 146.039 10.3628C145.949 10.5002 145.839 10.6151 145.7 10.7025C145.562 10.7899 145.407 10.8574 145.238 10.8948C145.065 10.9348 144.895 10.9573 144.723 10.9573C144.518 10.9573 144.321 10.9273 144.136 10.8773C143.951 10.8249 143.789 10.745 143.649 10.6401C143.509 10.5327 143.399 10.4003 143.317 10.2329C143.237 10.0706 143.194 9.87578 143.194 9.65099H143.664C143.664 9.80585 143.694 9.94072 143.754 10.0531C143.814 10.1655 143.894 10.2579 143.994 10.3279C144.091 10.4028 144.206 10.4577 144.338 10.4902C144.468 10.5252 144.603 10.5427 144.741 10.5427C144.853 10.5427 144.965 10.5327 145.075 10.5127C145.188 10.4902 145.29 10.4577 145.38 10.4053C145.47 10.3553 145.542 10.2879 145.597 10.2005C145.652 10.1156 145.682 10.0032 145.682 9.86829C145.682 9.74091 145.645 9.63601 145.58 9.55858C145.512 9.47865 145.42 9.41371 145.307 9.36626C145.198 9.31381 145.07 9.27384 144.93 9.24137C144.882 9.23055 144.834 9.22001 144.786 9.20946C144.69 9.18837 144.594 9.16728 144.496 9.14397C144.351 9.1115 144.206 9.07653 144.061 9.03157C143.921 8.98911 143.794 8.93166 143.681 8.86173C143.572 8.7893 143.479 8.69938 143.412 8.58699C143.344 8.47459 143.309 8.33222 143.309 8.16238C143.309 7.97755 143.349 7.81521 143.424 7.67783C143.499 7.54046 143.602 7.43056 143.731 7.34065C143.856 7.25323 143.999 7.18829 144.161 7.14583C144.318 7.10087 144.486 7.07839 144.656 7.07839C144.845 7.07839 145.02 7.10087 145.183 7.14833C145.347 7.19329 145.49 7.26322 145.612 7.36063C145.735 7.45804 145.832 7.58042 145.902 7.72779C145.974 7.87515 146.012 8.04999 146.019 8.2548H145.552C145.522 7.98755 145.43 7.79522 145.265 7.67534C145.1 7.55795 144.888 7.4955 144.636 7.4955C144.531 7.4955 144.426 7.50799 144.328 7.52797C144.228 7.55045 144.139 7.58292 144.061 7.63038C143.984 7.68033 143.921 7.74277 143.874 7.8252C143.824 7.90762 143.804 8.01002 143.804 8.12741C143.804 8.24231 143.839 8.33472 143.904 8.40715C143.971 8.47709 144.061 8.53453 144.174 8.57949C144.286 8.62445 144.411 8.66441 144.556 8.69189C144.698 8.72186 144.843 8.75433 144.99 8.7893C145.135 8.82177 145.28 8.86423 145.42 8.90669ZM148.629 10.2829L149.798 7.16581H150.473V10.8724H150.006V7.79023H149.993L148.839 10.8724H148.42L147.266 7.79023H147.253V10.8724H146.784V7.16581H147.458L148.629 10.2829ZM141.121 17.4662C141.121 19.9239 141.189 20.2636 142.418 20.4359L143.237 20.5358C143.474 20.7082 143.407 21.2851 143.167 21.3875C142.043 21.3226 141.056 21.2851 139.86 21.2851C138.631 21.2851 137.71 21.3226 136.753 21.3875C136.516 21.2851 136.446 20.7082 136.683 20.5358L137.3 20.4359C138.561 20.2311 138.596 19.9239 138.596 17.4662V12.5183C138.596 10.198 137.572 9.00659 135.422 9.00659C134.125 9.00659 133.071 9.58605 132.592 10.198C132.185 10.7125 132.08 11.0547 132.08 12.2486V17.4662C132.08 19.9239 132.15 20.2636 133.376 20.4359L134.095 20.5358C134.333 20.7082 134.265 21.2851 134.023 21.3875C133.001 21.3226 132.012 21.2851 130.816 21.2851C129.587 21.2851 128.668 21.3226 127.711 21.3875C127.477 21.2851 127.407 20.7082 127.646 20.5358L128.261 20.4359C129.52 20.2311 129.557 19.9239 129.557 17.4662V12.5183C129.557 10.2354 128.531 9.00659 126.418 9.00659C125.016 9.00659 124.065 9.61852 123.55 10.2354C123.211 10.6426 123.041 11.0847 123.041 12.1786V17.4662C123.041 19.9239 123.108 20.2311 124.335 20.4359L124.949 20.5358C125.191 20.7082 125.121 21.2851 124.882 21.3875C123.96 21.3226 122.971 21.2851 121.779 21.2851C120.551 21.2851 119.524 21.3226 118.468 21.3875C118.32 21.3276 118.24 21.0803 118.255 20.8605C118.212 20.8693 118.168 20.8782 118.123 20.8872L118.038 20.9043L117.851 20.9417C116.558 21.1994 114.89 21.5321 113.862 22.1069C113.694 22.1069 113.522 22.0045 113.455 21.8671V20.4709C113.455 20.1612 113.352 19.9913 113.147 19.9913L113.007 20.0807C111.974 20.7386 110.363 21.7647 108.437 21.7647C105.437 21.7647 104.311 20.2636 104.311 17.5012V11.804C104.311 9.65599 104.311 9.34877 103.287 8.90419L102.877 8.73185C102.672 8.56201 102.707 8.08745 102.947 7.98255C104.516 7.95008 105.847 7.64037 106.596 7.37062C106.801 7.40309 106.903 7.47302 106.936 7.6079C106.871 8.18736 106.836 8.90419 106.836 10.5751V16.2748C106.836 18.6276 107.415 20.1961 110.008 20.1961C110.927 20.1961 112.019 19.8215 112.77 19.1721C113.215 18.7625 113.455 18.253 113.455 17.194V11.5992C113.455 9.40919 113.221 9.31599 112.233 8.92085L112.191 8.90419L111.746 8.73185C111.509 8.59698 111.509 8.11742 111.781 7.98255C113.147 7.95008 115.023 7.7103 115.773 7.37062C115.945 7.40309 116.047 7.47302 116.082 7.6079C116.012 8.25729 115.977 9.31381 115.977 10.5751V16.3073C115.977 19.0023 116.082 20.0263 117.036 20.0263C117.446 20.0263 117.888 19.9564 118.368 19.854C118.495 19.9639 118.557 20.2736 118.515 20.5208L119.217 20.4359C120.483 20.2636 120.513 19.9239 120.513 17.4662V11.4968C120.513 10.1655 120.513 9.99567 119.594 9.37875L119.287 9.17644C119.154 9.03906 119.154 8.66441 119.322 8.56201C120.104 8.28976 122.049 7.40309 122.731 6.89107C122.868 6.89107 123.041 6.95851 123.108 7.12835C123.041 7.91261 123.041 8.42714 123.041 8.73185C123.041 8.93666 123.178 9.109 123.415 9.109C124.709 8.18736 126.313 7.37062 127.954 7.37062C129.66 7.37062 130.611 7.98255 131.57 9.37875C131.875 9.45118 132.112 9.31381 132.422 9.109C133.788 8.15239 135.459 7.37062 137.063 7.37062C139.79 7.37062 141.121 9.24387 141.121 11.5992V17.4662ZM98.4573 13.1825L98.6111 13.2701C100.419 14.2967 102.095 15.4556 102.095 17.8758C102.095 20.4709 99.705 21.7647 97.1824 21.7647C95.5764 21.7647 94.3825 21.425 93.5283 20.7431C93.2586 20.0937 93.0537 18.4228 93.1212 17.2964C93.291 17.0915 93.7331 17.0591 93.903 17.2639C94.4849 19.1371 95.5764 20.7756 97.5196 20.7756C98.7484 20.7756 99.8074 20.0588 99.8074 18.5926C99.8074 17.0216 98.4437 16.1724 97.1824 15.4556C95.1992 14.3291 93.803 13.1327 93.803 11.2595C93.803 8.76682 95.8486 7.37062 98.4437 7.37062C99.8774 7.37062 101.136 7.7103 101.446 7.98255C101.753 8.73185 101.99 9.82333 101.99 10.745C101.856 10.9847 101.341 11.0547 101.171 10.8499C100.592 9.34877 99.5702 8.3572 98.169 8.3572C96.8402 8.3572 95.986 9.2114 95.986 10.4378C95.986 11.7768 97.2978 12.523 98.4573 13.1825ZM82.9557 19.8889C83.6375 20.401 84.694 20.6407 85.4084 20.6407C88.2083 20.6407 89.8442 18.0482 89.8442 14.499C89.8442 11.7715 88.3082 9.00659 85.2385 9.00659C83.7724 9.00659 82.7159 9.55358 82.3412 9.9632C82.0315 10.3379 81.9316 10.8499 81.9316 11.9763V17.8408C81.9316 18.9323 82.2713 19.3419 82.9557 19.8889ZM82.4784 8.80813C83.2559 8.37993 85.0884 7.37062 86.9445 7.37062C90.3887 7.37062 92.6092 10.1655 92.6092 13.6098C92.6092 18.3554 89.1274 21.7647 84.2844 21.7647C83.67 21.7647 82.7159 21.6948 82.4062 21.6273C82.1015 21.6948 81.9316 21.8671 81.9316 22.5839V26.1681C81.9316 28.5908 81.9991 28.8955 83.2279 29.0654L84.5592 29.2377C84.7965 29.4076 84.7265 29.987 84.4892 30.0894C82.8508 30.0195 81.8617 29.987 80.6678 29.987C79.4365 29.987 78.4149 30.0195 77.4608 30.0894C77.221 29.987 77.1536 29.4076 77.3959 29.2377L78.1102 29.1328C79.3715 28.9655 79.4065 28.6208 79.4065 26.1681V11.4968C79.4065 10.1655 79.4065 9.99567 78.4848 9.37875L78.1801 9.17644C78.0403 9.03906 78.0403 8.66441 78.2126 8.56201C79.0993 8.18736 80.7028 7.37062 81.5919 6.72123C81.7943 6.72123 81.9316 6.79116 81.9991 6.95851C81.9866 7.07177 81.9741 7.18164 81.962 7.28828C81.9082 7.76008 81.8617 8.16849 81.8617 8.52704C81.8617 8.76682 81.9316 8.97163 82.1714 8.97163C82.2372 8.94095 82.3414 8.88356 82.4784 8.80813ZM75.62 1.77584C75.62 3.0022 74.7683 3.54669 73.8117 3.54669C72.7527 3.54669 72.0708 2.76242 72.0708 1.84078C72.0708 0.714333 72.8901 0 73.9166 0C74.9357 0 75.62 0.816738 75.62 1.77584ZM76.6091 20.4359L77.3259 20.5358C77.5632 20.7082 77.4958 21.2851 77.2585 21.3875C76.2344 21.3226 75.2429 21.2851 74.0515 21.2851C72.8226 21.2851 71.7986 21.3226 70.842 21.3875C70.6047 21.2851 70.5348 20.7082 70.7745 20.5358L71.4914 20.4359C72.7527 20.2636 72.7877 19.9239 72.7877 17.4662V11.4968C72.7877 10.1655 72.7877 9.99567 71.8685 9.37875L71.5588 9.17644C71.4239 9.03906 71.4239 8.66441 71.5938 8.56201C72.3805 8.28976 74.3237 7.40309 75.1055 6.89107C75.2803 6.89107 75.4152 6.95851 75.4477 7.09588C75.3802 8.28976 75.3128 9.92574 75.3128 11.3244V17.4662C75.3128 19.9239 75.3802 20.2636 76.6091 20.4359ZM61.4707 7.55795C62.1801 7.18829 63.0043 6.98598 63.9409 6.98598C66.9531 6.98598 68.689 9.17644 68.689 13.0703V21.2851H63.7161V13.8396C63.7161 12.1062 63.2016 11.1096 62.0677 11.1096C61.2409 11.1096 60.7289 11.6217 60.5041 12.3035C60.3892 12.5883 60.3593 13.0154 60.3593 13.3276V21.2851H55.3839V13.6972C55.3839 12.1312 54.9019 11.1096 53.7354 11.1096C52.8263 11.1096 52.3717 11.789 52.1744 12.2486C52.0595 12.5883 52.0295 12.9579 52.0295 13.3001V21.2851H47.0542V12.0762C47.0542 10.198 46.9992 8.60697 46.9418 7.30069H51.2328L51.4326 9.06404H51.5475C52.0595 8.3547 53.2809 6.98598 55.6986 6.98598C57.4894 6.98598 58.8806 7.81021 59.4801 9.23388H59.535C60.077 8.49457 60.7289 7.95508 61.4707 7.55795ZM39.4363 10.3403C37.9302 10.3403 37.3308 11.7365 37.2458 12.6182H41.4269C41.4269 11.8215 41.0548 10.3403 39.4363 10.3403ZM32.4403 14.434C32.4403 11.1946 34.5459 6.98598 39.6936 6.98598C44.2143 6.98598 46.1475 10.3129 46.1475 14.1518C46.1475 14.976 46.0301 15.7428 45.9477 16.0875H37.3033C37.4756 17.194 39.0966 17.8184 40.9149 17.8184C42.2212 17.8184 43.475 17.6785 44.7239 17.2814L45.3807 20.6907C43.6998 21.3451 41.8815 21.5724 40.1456 21.5724C35.2302 21.5724 32.4403 18.8724 32.4403 14.434ZM27.1403 9.83082H27.2527C27.992 7.69782 29.7553 6.98598 30.9767 6.98598C31.4338 6.98598 31.6311 6.98598 32.0007 7.0734V11.8789C31.6311 11.789 31.2314 11.7365 30.6944 11.7365C29.1859 11.7365 28.1618 12.3635 27.8771 13.4974C27.8496 13.7247 27.8221 14.0369 27.8221 14.3816V21.2851H22.6744V12.0188C22.6744 9.80335 22.647 8.4671 22.562 7.30069H26.9405L27.1403 9.83082ZM14.2048 17.9907H14.2323C15.626 17.9907 16.3653 16.5396 16.3653 14.2967C16.3653 12.3635 15.7384 10.5976 14.2323 10.5976C12.5289 10.5976 11.9569 12.4459 11.9569 14.2967C11.9569 16.3997 12.6388 17.9907 14.2048 17.9907ZM6.66937 14.4066C6.66937 9.94572 9.59914 6.98598 14.3747 6.98598C18.7506 6.98598 21.6529 9.94572 21.6529 14.1518C21.6529 19.2395 18.0138 21.6023 14.1199 21.6023H14.0924C9.91135 21.6023 6.66937 18.9548 6.66937 14.4066ZM5.62035 21.2851H0.472656V1.074H5.62035V21.2851Z" fill="#261B06"/>
</svg>
